<svg xmlns="http://www.w3.org/2000/svg" viewBox="0 0 24 24" width="24" height="24">
    <defs>
        <linearGradient id="iconGrad" x1="0%" y1="0%" x2="100%" y2="100%">
            <stop offset="0%" stop-color="#c084fc"/>
            <stop offset="50%" stop-color="#38bdf8"/>
            <stop offset="100%" stop-color="#34d399"/>
        </linearGradient>
        <filter id="neonGlow" x="-20%" y="-20%" width="140%" height="140%">
            <feGaussianBlur stdDeviation="1.5" result="blur"/>
            <feComposite in="SourceGraphic" in2="blur" operator="over"/>
        </filter>
    </defs>
    <path d="M14.7 6.3 a1 1 0 0 0 0 1.4 l1.6 1.6 c3.2 -3.2 4.1 -8.2 2.4 -10 c-1.8 -1.8 -6.8 -1 -10 2.4 l1.6 1.6 a1 1 0 0 0 1.4 0 l2.3 -2.3 a1 1 0 0 1 1.4 0 l1.6 1.6 a1 1 0 0 1 0 1.4 z M2 22 L10.5 13.5" fill="none" stroke="url(#iconGrad)" stroke-width="2" stroke-linecap="round" stroke-linejoin="round" filter="url(#neonGlow)"/>
</svg>